<svg width="16" height="19" viewBox="0 0 16 19" fill="none" xmlns="http://www.w3.org/2000/svg">
<path d="M15.5 14.8333V15.6667H0.5V14.8333L2.16667 13.1667V8.16666C2.16667 5.58332 3.85833 3.30832 6.33333 2.57499C6.33333 2.49166 6.33333 2.41666 6.33333 2.33332C6.33333 1.8913 6.50893 1.46737 6.82149 1.15481C7.13405 0.842251 7.55797 0.666656 8 0.666656C8.44203 0.666656 8.86595 0.842251 9.17851 1.15481C9.49107 1.46737 9.66667 1.8913 9.66667 2.33332C9.66667 2.41666 9.66667 2.49166 9.66667 2.57499C12.1417 3.30832 13.8333 5.58332 13.8333 8.16666V13.1667L15.5 14.8333ZM9.66667 16.5C9.66667 16.942 9.49107 17.3659 9.17851 17.6785C8.86595 17.9911 8.44203 18.1667 8 18.1667C7.55797 18.1667 7.13405 17.9911 6.82149 17.6785C6.50893 17.3659 6.33333 16.942 6.33333 16.5" fill="#1B1C29"/>
</svg>
